<?xml version="1.0" encoding="UTF-8" standalone="no"?>
<!DOCTYPE svg PUBLIC "-//W3C//DTD SVG 1.1//EN"
 "http://www.w3.org/Graphics/SVG/1.1/DTD/svg11.dtd">
<!-- Generated by graphviz version 2.40.1 (20161225.0304)
 -->
<!-- Title: dependencies Pages: 1 -->
<svg width="1785pt" height="284pt"
 viewBox="0.00 0.00 1785.00 284.00" xmlns="http://www.w3.org/2000/svg" xmlns:xlink="http://www.w3.org/1999/xlink">
<g id="graph0" class="graph" transform="scale(1 1) rotate(0) translate(4 280)">
<title>dependencies</title>
<polygon fill="#ffffff" stroke="transparent" points="-4,4 -4,-280 1781,-280 1781,4 -4,4"/>
<text text-anchor="start" x="867.5091" y="-42.4" font-family="sans-serif" font-weight="bold" font-size="14.00" fill="#000000">Legend</text>
<polygon fill="#ffffb3" stroke="transparent" points="654.5,-10 654.5,-30 674.5,-30 674.5,-10 654.5,-10"/>
<text text-anchor="start" x="678.129" y="-15.4" font-family="sans-serif" font-size="14.00" fill="#000000"> &#160;Declarations</text>
<polygon fill="#8dd3c7" stroke="transparent" points="767.5,-10 767.5,-30 787.5,-30 787.5,-10 767.5,-10"/>
<text text-anchor="start" x="791.2251" y="-15.4" font-family="sans-serif" font-size="14.00" fill="#000000"> &#160;Module</text>
<polygon fill="#80b1d3" stroke="transparent" points="853.5,-10 853.5,-30 873.5,-30 873.5,-10 853.5,-10"/>
<text text-anchor="start" x="877.2812" y="-15.4" font-family="sans-serif" font-size="14.00" fill="#000000"> &#160;Bootstrap</text>
<polygon fill="#fdb462" stroke="transparent" points="950.5,-10 950.5,-30 970.5,-30 970.5,-10 950.5,-10"/>
<text text-anchor="start" x="974.1732" y="-15.4" font-family="sans-serif" font-size="14.00" fill="#000000"> &#160;Providers</text>
<polygon fill="#fb8072" stroke="transparent" points="1046.5,-10 1046.5,-30 1066.5,-30 1066.5,-10 1046.5,-10"/>
<text text-anchor="start" x="1070.2258" y="-15.4" font-family="sans-serif" font-size="14.00" fill="#000000"> &#160;Exports</text>
<g id="clust1" class="cluster">
<title>cluster_AppModule</title>
<polygon fill="none" stroke="#000000" stroke-dasharray="1,5" points="8,-70 8,-268 1143,-268 1143,-70 8,-70"/>
</g>
<g id="clust2" class="cluster">
<title>cluster_AppModule_declarations</title>
<polygon fill="none" stroke="#000000" points="168,-78 168,-130 1135,-130 1135,-78 168,-78"/>
</g>
<g id="clust10" class="cluster">
<title>cluster_AppModule_imports</title>
<polygon fill="none" stroke="#000000" points="16,-78 16,-130 160,-130 160,-78 16,-78"/>
</g>
<g id="clust12" class="cluster">
<title>cluster_AppModule_bootstrap</title>
<polygon fill="none" stroke="#000000" points="547,-208 547,-260 671,-260 671,-208 547,-208"/>
</g>
<g id="clust20" class="cluster">
<title>cluster_HomePageModule</title>
<polygon fill="none" stroke="#000000" stroke-dasharray="1,5" points="1501,-70 1501,-195 1637,-195 1637,-70 1501,-70"/>
</g>
<g id="clust21" class="cluster">
<title>cluster_HomePageModule_declarations</title>
<polygon fill="none" stroke="#000000" points="1522,-78 1522,-130 1616,-130 1616,-78 1522,-78"/>
</g>
<g id="clust27" class="cluster">
<title>cluster_ListPageModule</title>
<polygon fill="none" stroke="#000000" stroke-dasharray="1,5" points="1645,-70 1645,-195 1769,-195 1769,-70 1645,-70"/>
</g>
<g id="clust28" class="cluster">
<title>cluster_ListPageModule_declarations</title>
<polygon fill="none" stroke="#000000" points="1667,-78 1667,-130 1747,-130 1747,-78 1667,-78"/>
</g>
<g id="clust34" class="cluster">
<title>cluster_ModalEditPageModule</title>
<polygon fill="none" stroke="#000000" stroke-dasharray="1,5" points="1151,-143 1151,-195 1313,-195 1313,-143 1151,-143"/>
</g>
<g id="clust41" class="cluster">
<title>cluster_ModalLoginPageModule</title>
<polygon fill="none" stroke="#000000" stroke-dasharray="1,5" points="1321,-143 1321,-195 1493,-195 1493,-143 1321,-143"/>
</g>
<!-- AppComponent -->
<g id="node1" class="node">
<title>AppComponent</title>
<polygon fill="#ffffb3" stroke="#000000" points="281.9399,-122 176.0601,-122 176.0601,-86 281.9399,-86 281.9399,-122"/>
<text text-anchor="middle" x="229" y="-99.8" font-family="Times,serif" font-size="14.00" fill="#000000">AppComponent</text>
</g>
<!-- AppModule -->
<g id="node8" class="node">
<title>AppModule</title>
<polygon fill="#8dd3c7" stroke="#000000" points="650.6571,-187 647.6571,-191 626.6571,-191 623.6571,-187 567.3429,-187 567.3429,-151 650.6571,-151 650.6571,-187"/>
<text text-anchor="middle" x="609" y="-164.8" font-family="Times,serif" font-size="14.00" fill="#000000">AppModule</text>
</g>
<!-- AppComponent&#45;&gt;AppModule -->
<g id="edge1" class="edge">
<title>AppComponent&#45;&gt;AppModule</title>
<path fill="none" stroke="#000000" d="M229,-122.1061C229,-141.3391 229,-169 229,-169 229,-169 557.2463,-169 557.2463,-169"/>
<polygon fill="#000000" stroke="#000000" points="557.2464,-172.5001 567.2463,-169 557.2463,-165.5001 557.2464,-172.5001"/>
</g>
<!-- ConfirmComponent -->
<g id="node2" class="node">
<title>ConfirmComponent</title>
<polygon fill="#ffffb3" stroke="#000000" points="874.2716,-122 745.7284,-122 745.7284,-86 874.2716,-86 874.2716,-122"/>
<text text-anchor="middle" x="810" y="-99.8" font-family="Times,serif" font-size="14.00" fill="#000000">ConfirmComponent</text>
</g>
<!-- ConfirmComponent&#45;&gt;AppModule -->
<g id="edge2" class="edge">
<title>ConfirmComponent&#45;&gt;AppModule</title>
<path fill="none" stroke="#000000" d="M810,-122.2667C810,-140.5552 810,-166 810,-166 810,-166 661.1362,-166 661.1362,-166"/>
<polygon fill="#000000" stroke="#000000" points="661.1362,-162.5001 651.1362,-166 661.1362,-169.5001 661.1362,-162.5001"/>
</g>
<!-- EditComponent -->
<g id="node3" class="node">
<title>EditComponent</title>
<polygon fill="#ffffb3" stroke="#000000" points="727.1667,-122 622.8333,-122 622.8333,-86 727.1667,-86 727.1667,-122"/>
<text text-anchor="middle" x="675" y="-99.8" font-family="Times,serif" font-size="14.00" fill="#000000">EditComponent</text>
</g>
<!-- EditComponent&#45;&gt;AppModule -->
<g id="edge3" class="edge">
<title>EditComponent&#45;&gt;AppModule</title>
<path fill="none" stroke="#000000" d="M636.7476,-122.1061C636.7476,-122.1061 636.7476,-140.991 636.7476,-140.991"/>
<polygon fill="#000000" stroke="#000000" points="633.2476,-140.9909 636.7476,-150.991 640.2476,-140.991 633.2476,-140.9909"/>
</g>
<!-- LogoutComponent -->
<g id="node4" class="node">
<title>LogoutComponent</title>
<polygon fill="#ffffb3" stroke="#000000" points="604.7758,-122 483.2242,-122 483.2242,-86 604.7758,-86 604.7758,-122"/>
<text text-anchor="middle" x="544" y="-99.8" font-family="Times,serif" font-size="14.00" fill="#000000">LogoutComponent</text>
</g>
<!-- LogoutComponent&#45;&gt;AppModule -->
<g id="edge4" class="edge">
<title>LogoutComponent&#45;&gt;AppModule</title>
<path fill="none" stroke="#000000" d="M586.0298,-122.1061C586.0298,-122.1061 586.0298,-140.991 586.0298,-140.991"/>
<polygon fill="#000000" stroke="#000000" points="582.5299,-140.9909 586.0298,-150.991 589.5299,-140.991 582.5299,-140.9909"/>
</g>
<!-- ModalEditPage -->
<g id="node5" class="node">
<title>ModalEditPage</title>
<polygon fill="#ffffb3" stroke="#000000" points="995.5954,-122 892.4046,-122 892.4046,-86 995.5954,-86 995.5954,-122"/>
<text text-anchor="middle" x="944" y="-99.8" font-family="Times,serif" font-size="14.00" fill="#000000">ModalEditPage</text>
</g>
<!-- ModalEditPage&#45;&gt;AppModule -->
<g id="edge5" class="edge">
<title>ModalEditPage&#45;&gt;AppModule</title>
<path fill="none" stroke="#000000" d="M926.8174,-122.1289C926.8174,-142.5724 926.8174,-173 926.8174,-173 926.8174,-173 660.8759,-173 660.8759,-173"/>
<polygon fill="#000000" stroke="#000000" points="660.8759,-169.5001 650.8759,-173 660.8759,-176.5001 660.8759,-169.5001"/>
</g>
<!-- ModalEditPageModule -->
<g id="node15" class="node">
<title>ModalEditPageModule</title>
<polygon fill="#8dd3c7" stroke="#000000" points="1305.1456,-187 1302.1456,-191 1281.1456,-191 1278.1456,-187 1158.8544,-187 1158.8544,-151 1305.1456,-151 1305.1456,-187"/>
<text text-anchor="middle" x="1232" y="-164.8" font-family="Times,serif" font-size="14.00" fill="#000000">ModalEditPageModule</text>
</g>
<!-- ModalEditPage&#45;&gt;ModalEditPageModule -->
<g id="edge12" class="edge">
<title>ModalEditPage&#45;&gt;ModalEditPageModule</title>
<path fill="none" stroke="#000000" d="M961.1826,-122.0091C961.1826,-138.0494 961.1826,-159 961.1826,-159 961.1826,-159 1148.7129,-159 1148.7129,-159"/>
<polygon fill="#000000" stroke="#000000" points="1148.7129,-162.5001 1158.7129,-159 1148.7129,-155.5001 1148.7129,-162.5001"/>
</g>
<!-- ModalLoginPage -->
<g id="node6" class="node">
<title>ModalLoginPage</title>
<polygon fill="#ffffb3" stroke="#000000" points="1126.705,-122 1013.295,-122 1013.295,-86 1126.705,-86 1126.705,-122"/>
<text text-anchor="middle" x="1070" y="-99.8" font-family="Times,serif" font-size="14.00" fill="#000000">ModalLoginPage</text>
</g>
<!-- ModalLoginPage&#45;&gt;AppModule -->
<g id="edge6" class="edge">
<title>ModalLoginPage&#45;&gt;AppModule</title>
<path fill="none" stroke="#000000" d="M1070,-122.0109C1070,-144.4852 1070,-180 1070,-180 1070,-180 660.7237,-180 660.7237,-180"/>
<polygon fill="#000000" stroke="#000000" points="660.7238,-176.5001 650.7237,-180 660.7237,-183.5001 660.7238,-176.5001"/>
</g>
<!-- ModalLoginPageModule -->
<g id="node16" class="node">
<title>ModalLoginPageModule</title>
<polygon fill="#8dd3c7" stroke="#000000" points="1485.2548,-187 1482.2548,-191 1461.2548,-191 1458.2548,-187 1328.7452,-187 1328.7452,-151 1485.2548,-151 1485.2548,-187"/>
<text text-anchor="middle" x="1407" y="-164.8" font-family="Times,serif" font-size="14.00" fill="#000000">ModalLoginPageModule</text>
</g>
<!-- ModalLoginPage&#45;&gt;ModalLoginPageModule -->
<g id="edge13" class="edge">
<title>ModalLoginPage&#45;&gt;ModalLoginPageModule</title>
<path fill="none" stroke="#000000" d="M1126.7864,-104C1222.8288,-104 1407,-104 1407,-104 1407,-104 1407,-140.8939 1407,-140.8939"/>
<polygon fill="#000000" stroke="#000000" points="1403.5001,-140.8938 1407,-150.8939 1410.5001,-140.8939 1403.5001,-140.8938"/>
</g>
<!-- ModalRankingComponent -->
<g id="node7" class="node">
<title>ModalRankingComponent</title>
<polygon fill="#ffffb3" stroke="#000000" points="464.8243,-122 299.1757,-122 299.1757,-86 464.8243,-86 464.8243,-122"/>
<text text-anchor="middle" x="382" y="-99.8" font-family="Times,serif" font-size="14.00" fill="#000000">ModalRankingComponent</text>
</g>
<!-- ModalRankingComponent&#45;&gt;AppModule -->
<g id="edge7" class="edge">
<title>ModalRankingComponent&#45;&gt;AppModule</title>
<path fill="none" stroke="#000000" d="M382,-122.027C382,-138.3976 382,-160 382,-160 382,-160 557.1002,-160 557.1002,-160"/>
<polygon fill="#000000" stroke="#000000" points="557.1002,-163.5001 567.1002,-160 557.1001,-156.5001 557.1002,-163.5001"/>
</g>
<!-- AppComponent  -->
<g id="node10" class="node">
<title>AppComponent </title>
<polygon fill="#80b1d3" stroke="#000000" points="663.439,-252 554.561,-252 554.561,-216 663.439,-216 663.439,-252"/>
<text text-anchor="middle" x="609" y="-229.8" font-family="Times,serif" font-size="14.00" fill="#000000">AppComponent </text>
</g>
<!-- AppModule&#45;&gt;AppComponent  -->
<g id="edge9" class="edge">
<title>AppModule&#45;&gt;AppComponent </title>
<path fill="none" stroke="#000000" stroke-dasharray="1,5" d="M609,-187.1061C609,-187.1061 609,-205.991 609,-205.991"/>
<polygon fill="#000000" stroke="#000000" points="605.5001,-205.9909 609,-215.991 612.5001,-205.991 605.5001,-205.9909"/>
</g>
<!-- AppRoutingModule -->
<g id="node9" class="node">
<title>AppRoutingModule</title>
<polygon fill="#8dd3c7" stroke="#000000" points="152.2744,-122 149.2744,-126 128.2744,-126 125.2744,-122 23.7256,-122 23.7256,-86 152.2744,-86 152.2744,-122"/>
<text text-anchor="middle" x="88" y="-99.8" font-family="Times,serif" font-size="14.00" fill="#000000">AppRoutingModule</text>
</g>
<!-- AppRoutingModule&#45;&gt;AppModule -->
<g id="edge8" class="edge">
<title>AppRoutingModule&#45;&gt;AppModule</title>
<path fill="none" stroke="#000000" d="M88,-122.2921C88,-144.2057 88,-178 88,-178 88,-178 557.2451,-178 557.2451,-178"/>
<polygon fill="#000000" stroke="#000000" points="557.2451,-181.5001 567.2451,-178 557.245,-174.5001 557.2451,-181.5001"/>
</g>
<!-- HomePage -->
<g id="node11" class="node">
<title>HomePage</title>
<polygon fill="#ffffb3" stroke="#000000" points="1607.9248,-122 1530.0752,-122 1530.0752,-86 1607.9248,-86 1607.9248,-122"/>
<text text-anchor="middle" x="1569" y="-99.8" font-family="Times,serif" font-size="14.00" fill="#000000">HomePage</text>
</g>
<!-- HomePageModule -->
<g id="node12" class="node">
<title>HomePageModule</title>
<polygon fill="#8dd3c7" stroke="#000000" points="1629.4734,-187 1626.4734,-191 1605.4734,-191 1602.4734,-187 1508.5266,-187 1508.5266,-151 1629.4734,-151 1629.4734,-187"/>
<text text-anchor="middle" x="1569" y="-164.8" font-family="Times,serif" font-size="14.00" fill="#000000">HomePageModule</text>
</g>
<!-- HomePage&#45;&gt;HomePageModule -->
<g id="edge10" class="edge">
<title>HomePage&#45;&gt;HomePageModule</title>
<path fill="none" stroke="#000000" d="M1569,-122.1061C1569,-122.1061 1569,-140.991 1569,-140.991"/>
<polygon fill="#000000" stroke="#000000" points="1565.5001,-140.9909 1569,-150.991 1572.5001,-140.991 1565.5001,-140.9909"/>
</g>
<!-- ListPage -->
<g id="node13" class="node">
<title>ListPage</title>
<polygon fill="#ffffb3" stroke="#000000" points="1739.4902,-122 1674.5098,-122 1674.5098,-86 1739.4902,-86 1739.4902,-122"/>
<text text-anchor="middle" x="1707" y="-99.8" font-family="Times,serif" font-size="14.00" fill="#000000">ListPage</text>
</g>
<!-- ListPageModule -->
<g id="node14" class="node">
<title>ListPageModule</title>
<polygon fill="#8dd3c7" stroke="#000000" points="1761.041,-187 1758.041,-191 1737.041,-191 1734.041,-187 1652.959,-187 1652.959,-151 1761.041,-151 1761.041,-187"/>
<text text-anchor="middle" x="1707" y="-164.8" font-family="Times,serif" font-size="14.00" fill="#000000">ListPageModule</text>
</g>
<!-- ListPage&#45;&gt;ListPageModule -->
<g id="edge11" class="edge">
<title>ListPage&#45;&gt;ListPageModule</title>
<path fill="none" stroke="#000000" d="M1707,-122.1061C1707,-122.1061 1707,-140.991 1707,-140.991"/>
<polygon fill="#000000" stroke="#000000" points="1703.5001,-140.9909 1707,-150.991 1710.5001,-140.991 1703.5001,-140.9909"/>
</g>
</g>
</svg>
