<?xml version="1.0" encoding="UTF-8" standalone="no"?>
<!DOCTYPE svg PUBLIC "-//W3C//DTD SVG 1.1//EN"
 "http://www.w3.org/Graphics/SVG/1.1/DTD/svg11.dtd">
<!-- Generated by graphviz version 2.40.1 (20161225.0304)
 -->
<!-- Title: dependencies Pages: 1 -->
<svg width="1158pt" height="284pt"
 viewBox="0.00 0.00 1158.00 284.00" xmlns="http://www.w3.org/2000/svg" xmlns:xlink="http://www.w3.org/1999/xlink">
<g id="graph0" class="graph" transform="scale(1 1) rotate(0) translate(4 280)">
<title>dependencies</title>
<polygon fill="#ffffff" stroke="transparent" points="-4,4 -4,-280 1154,-280 1154,4 -4,4"/>
<text text-anchor="start" x="554.0091" y="-42.4" font-family="sans-serif" font-weight="bold" font-size="14.00" fill="#000000">Legend</text>
<polygon fill="#ffffb3" stroke="transparent" points="341,-10 341,-30 361,-30 361,-10 341,-10"/>
<text text-anchor="start" x="364.629" y="-15.4" font-family="sans-serif" font-size="14.00" fill="#000000"> &#160;Declarations</text>
<polygon fill="#8dd3c7" stroke="transparent" points="454,-10 454,-30 474,-30 474,-10 454,-10"/>
<text text-anchor="start" x="477.7251" y="-15.4" font-family="sans-serif" font-size="14.00" fill="#000000"> &#160;Module</text>
<polygon fill="#80b1d3" stroke="transparent" points="540,-10 540,-30 560,-30 560,-10 540,-10"/>
<text text-anchor="start" x="563.7812" y="-15.4" font-family="sans-serif" font-size="14.00" fill="#000000"> &#160;Bootstrap</text>
<polygon fill="#fdb462" stroke="transparent" points="637,-10 637,-30 657,-30 657,-10 637,-10"/>
<text text-anchor="start" x="660.6732" y="-15.4" font-family="sans-serif" font-size="14.00" fill="#000000"> &#160;Providers</text>
<polygon fill="#fb8072" stroke="transparent" points="733,-10 733,-30 753,-30 753,-10 733,-10"/>
<text text-anchor="start" x="756.7258" y="-15.4" font-family="sans-serif" font-size="14.00" fill="#000000"> &#160;Exports</text>
<g id="clust1" class="cluster">
<title>cluster_AppModule</title>
<polygon fill="none" stroke="#000000" stroke-dasharray="1,5" points="8,-70 8,-268 1142,-268 1142,-70 8,-70"/>
</g>
<g id="clust2" class="cluster">
<title>cluster_AppModule_declarations</title>
<polygon fill="none" stroke="#000000" points="168,-78 168,-130 1134,-130 1134,-78 168,-78"/>
</g>
<g id="clust10" class="cluster">
<title>cluster_AppModule_imports</title>
<polygon fill="none" stroke="#000000" points="16,-78 16,-130 160,-130 160,-78 16,-78"/>
</g>
<g id="clust12" class="cluster">
<title>cluster_AppModule_bootstrap</title>
<polygon fill="none" stroke="#000000" points="545,-208 545,-260 669,-260 669,-208 545,-208"/>
</g>
<!-- AppComponent -->
<g id="node1" class="node">
<title>AppComponent</title>
<polygon fill="#ffffb3" stroke="#000000" points="1125.9399,-122 1020.0601,-122 1020.0601,-86 1125.9399,-86 1125.9399,-122"/>
<text text-anchor="middle" x="1073" y="-99.8" font-family="Times,serif" font-size="14.00" fill="#000000">AppComponent</text>
</g>
<!-- AppModule -->
<g id="node8" class="node">
<title>AppModule</title>
<polygon fill="#8dd3c7" stroke="#000000" points="648.6571,-187 645.6571,-191 624.6571,-191 621.6571,-187 565.3429,-187 565.3429,-151 648.6571,-151 648.6571,-187"/>
<text text-anchor="middle" x="607" y="-164.8" font-family="Times,serif" font-size="14.00" fill="#000000">AppModule</text>
</g>
<!-- AppComponent&#45;&gt;AppModule -->
<g id="edge1" class="edge">
<title>AppComponent&#45;&gt;AppModule</title>
<path fill="none" stroke="#000000" d="M1073,-122.2921C1073,-144.2057 1073,-178 1073,-178 1073,-178 658.7645,-178 658.7645,-178"/>
<polygon fill="#000000" stroke="#000000" points="658.7645,-174.5001 648.7645,-178 658.7645,-181.5001 658.7645,-174.5001"/>
</g>
<!-- ConfirmComponent -->
<g id="node2" class="node">
<title>ConfirmComponent</title>
<polygon fill="#ffffb3" stroke="#000000" points="1002.2716,-122 873.7284,-122 873.7284,-86 1002.2716,-86 1002.2716,-122"/>
<text text-anchor="middle" x="938" y="-99.8" font-family="Times,serif" font-size="14.00" fill="#000000">ConfirmComponent</text>
</g>
<!-- ConfirmComponent&#45;&gt;AppModule -->
<g id="edge2" class="edge">
<title>ConfirmComponent&#45;&gt;AppModule</title>
<path fill="none" stroke="#000000" d="M938,-122.1061C938,-141.3391 938,-169 938,-169 938,-169 658.9214,-169 658.9214,-169"/>
<polygon fill="#000000" stroke="#000000" points="658.9214,-165.5001 648.9214,-169 658.9213,-172.5001 658.9214,-165.5001"/>
</g>
<!-- EditComponent -->
<g id="node3" class="node">
<title>EditComponent</title>
<polygon fill="#ffffb3" stroke="#000000" points="855.1667,-122 750.8333,-122 750.8333,-86 855.1667,-86 855.1667,-122"/>
<text text-anchor="middle" x="803" y="-99.8" font-family="Times,serif" font-size="14.00" fill="#000000">EditComponent</text>
</g>
<!-- EditComponent&#45;&gt;AppModule -->
<g id="edge3" class="edge">
<title>EditComponent&#45;&gt;AppModule</title>
<path fill="none" stroke="#000000" d="M803,-122.027C803,-138.3976 803,-160 803,-160 803,-160 659.0469,-160 659.0469,-160"/>
<polygon fill="#000000" stroke="#000000" points="659.047,-156.5001 649.0469,-160 659.0469,-163.5001 659.047,-156.5001"/>
</g>
<!-- LogoutComponent -->
<g id="node4" class="node">
<title>LogoutComponent</title>
<polygon fill="#ffffb3" stroke="#000000" points="732.7758,-122 611.2242,-122 611.2242,-86 732.7758,-86 732.7758,-122"/>
<text text-anchor="middle" x="672" y="-99.8" font-family="Times,serif" font-size="14.00" fill="#000000">LogoutComponent</text>
</g>
<!-- LogoutComponent&#45;&gt;AppModule -->
<g id="edge4" class="edge">
<title>LogoutComponent&#45;&gt;AppModule</title>
<path fill="none" stroke="#000000" d="M629.9702,-122.1061C629.9702,-122.1061 629.9702,-140.991 629.9702,-140.991"/>
<polygon fill="#000000" stroke="#000000" points="626.4703,-140.9909 629.9702,-150.991 633.4703,-140.991 626.4703,-140.9909"/>
</g>
<!-- ModalEditPage -->
<g id="node5" class="node">
<title>ModalEditPage</title>
<polygon fill="#ffffb3" stroke="#000000" points="593.5954,-122 490.4046,-122 490.4046,-86 593.5954,-86 593.5954,-122"/>
<text text-anchor="middle" x="542" y="-99.8" font-family="Times,serif" font-size="14.00" fill="#000000">ModalEditPage</text>
</g>
<!-- ModalEditPage&#45;&gt;AppModule -->
<g id="edge5" class="edge">
<title>ModalEditPage&#45;&gt;AppModule</title>
<path fill="none" stroke="#000000" d="M579.3598,-122.1061C579.3598,-122.1061 579.3598,-140.991 579.3598,-140.991"/>
<polygon fill="#000000" stroke="#000000" points="575.8598,-140.9909 579.3598,-150.991 582.8598,-140.991 575.8598,-140.9909"/>
</g>
<!-- ModalLoginPage -->
<g id="node6" class="node">
<title>ModalLoginPage</title>
<polygon fill="#ffffb3" stroke="#000000" points="472.705,-122 359.295,-122 359.295,-86 472.705,-86 472.705,-122"/>
<text text-anchor="middle" x="416" y="-99.8" font-family="Times,serif" font-size="14.00" fill="#000000">ModalLoginPage</text>
</g>
<!-- ModalLoginPage&#45;&gt;AppModule -->
<g id="edge6" class="edge">
<title>ModalLoginPage&#45;&gt;AppModule</title>
<path fill="none" stroke="#000000" d="M416,-122.027C416,-138.3976 416,-160 416,-160 416,-160 555.0842,-160 555.0842,-160"/>
<polygon fill="#000000" stroke="#000000" points="555.0843,-163.5001 565.0842,-160 555.0842,-156.5001 555.0843,-163.5001"/>
</g>
<!-- ModalRankingComponent -->
<g id="node7" class="node">
<title>ModalRankingComponent</title>
<polygon fill="#ffffb3" stroke="#000000" points="341.8243,-122 176.1757,-122 176.1757,-86 341.8243,-86 341.8243,-122"/>
<text text-anchor="middle" x="259" y="-99.8" font-family="Times,serif" font-size="14.00" fill="#000000">ModalRankingComponent</text>
</g>
<!-- ModalRankingComponent&#45;&gt;AppModule -->
<g id="edge7" class="edge">
<title>ModalRankingComponent&#45;&gt;AppModule</title>
<path fill="none" stroke="#000000" d="M259,-122.1061C259,-141.3391 259,-169 259,-169 259,-169 555.0231,-169 555.0231,-169"/>
<polygon fill="#000000" stroke="#000000" points="555.0231,-172.5001 565.0231,-169 555.023,-165.5001 555.0231,-172.5001"/>
</g>
<!-- AppComponent  -->
<g id="node10" class="node">
<title>AppComponent </title>
<polygon fill="#80b1d3" stroke="#000000" points="661.439,-252 552.561,-252 552.561,-216 661.439,-216 661.439,-252"/>
<text text-anchor="middle" x="607" y="-229.8" font-family="Times,serif" font-size="14.00" fill="#000000">AppComponent </text>
</g>
<!-- AppModule&#45;&gt;AppComponent  -->
<g id="edge9" class="edge">
<title>AppModule&#45;&gt;AppComponent </title>
<path fill="none" stroke="#000000" stroke-dasharray="1,5" d="M607,-187.1061C607,-187.1061 607,-205.991 607,-205.991"/>
<polygon fill="#000000" stroke="#000000" points="603.5001,-205.9909 607,-215.991 610.5001,-205.991 603.5001,-205.9909"/>
</g>
<!-- AppRoutingModule -->
<g id="node9" class="node">
<title>AppRoutingModule</title>
<polygon fill="#8dd3c7" stroke="#000000" points="152.2744,-122 149.2744,-126 128.2744,-126 125.2744,-122 23.7256,-122 23.7256,-86 152.2744,-86 152.2744,-122"/>
<text text-anchor="middle" x="88" y="-99.8" font-family="Times,serif" font-size="14.00" fill="#000000">AppRoutingModule</text>
</g>
<!-- AppRoutingModule&#45;&gt;AppModule -->
<g id="edge8" class="edge">
<title>AppRoutingModule&#45;&gt;AppModule</title>
<path fill="none" stroke="#000000" d="M88,-122.2921C88,-144.2057 88,-178 88,-178 88,-178 554.9677,-178 554.9677,-178"/>
<polygon fill="#000000" stroke="#000000" points="554.9677,-181.5001 564.9677,-178 554.9676,-174.5001 554.9677,-181.5001"/>
</g>
</g>
</svg>
